<?xml version="1.0" encoding="UTF-8" standalone="no"?>
<svg
   viewBox="0 0 365.74169 324.04922"
   version="1.1"
   id="svg199"
   sodipodi:docname="attention.svg"
   width="146.29668"
   height="129.61969"
   inkscape:version="1.2.2 (b0a84865, 2022-12-01)"
   xmlns:inkscape="http://www.inkscape.org/namespaces/inkscape"
   xmlns:sodipodi="http://sodipodi.sourceforge.net/DTD/sodipodi-0.dtd"
   xmlns="http://www.w3.org/2000/svg"
   xmlns:svg="http://www.w3.org/2000/svg">
  <sodipodi:namedview
     id="namedview201"
     pagecolor="#ffffff"
     bordercolor="#000000"
     borderopacity="0.25"
     inkscape:showpageshadow="2"
     inkscape:pageopacity="0.0"
     inkscape:pagecheckerboard="0"
     inkscape:deskcolor="#d1d1d1"
     showgrid="false"
     inkscape:zoom="0.59"
     inkscape:cx="81.355932"
     inkscape:cy="179.66102"
     inkscape:window-width="1309"
     inkscape:window-height="430"
     inkscape:window-x="0"
     inkscape:window-y="38"
     inkscape:window-maximized="0"
     inkscape:current-layer="svg199" />
  <defs
     id="defs185">
    <filter
       id="a">
      <feGaussianBlur
         stdDeviation="5.092479"
         id="feGaussianBlur182" />
    </filter>
  </defs>
  <g
     stroke-linecap="round"
     stroke-linejoin="round"
     id="g195"
     transform="translate(-19.532704,-29.976137)">
    <g
       fill="#ff0000"
       id="g191">
      <path
         d="m 202.38,33.494 c -1,0 -7.97,2.5466 -10.077,6.1933 l -167.6,291.54 c -2.2215,3.865 -2.2285,8.631 -0.01837,12.503 2.210128,3.872 6.3014,6.26 10.732,6.266 l 334.23,0.529 c 4.433,0.013 9.536,-2.36 10.762,-6.224 1.226,-3.864 2.236,-8.633 0.027,-12.507 l -166.67,-292.07 c -2.332,-4.07 -6.732,-6.4773 -11.388,-6.231 0,0 1,0 0,0 z m 0.599,37.462 145.24,254.53 -291.3,-0.453 146.06,-254.07 z"
         stroke="#ffffff"
         stroke-width="7"
         id="path187" />
      <path
         d="m 369.68,341.04 -334.25,-0.5395 167.59,-291.54 166.66,292.08 z"
         stroke-width="0"
         id="path189" />
    </g>
    <path
       d="m 202.45,110.76 c -2.583,0.137 -4.925,1.599 -6.227,3.89 l -103.58,183.1 c -1.3728,2.427 -1.3772,5.42 -0.0114,7.852 1.3658,2.431 3.8942,3.932 6.6326,3.935 l 206.55,0.332 c 2.739,0.009 5.275,-1.481 6.651,-3.909 1.375,-2.427 1.382,-5.421 0.016,-7.855 l -103,-183.43 c -1.441,-2.556 -4.16,-4.068 -7.038,-3.913 z"
       fill="#ffffff"
       stroke-width="3"
       id="path193" />
  </g>
  <path
     d="m 185.0173,216.74386 h -3.9725 c -0.41096,-8.261 -1.7808,-18.152 -4.1095,-29.675 l -4.726,-23.479 c -2.831,-14.076 -4.2465,-24.158 -4.2465,-30.245 -10e-6,-12.283 4.9999,-18.424 15,-18.424 4.3834,1.5e-4 8.0021,1.6986 10.856,5.0952 2.8538,3.397 4.2807,7.7313 4.2808,13.003 -3e-5,5.5981 -1.5068,15.788 -4.5205,30.571 l -4.7944,23.479 c -1.6895,8.2611 -2.9452,18.153 -3.7671,29.675 z m -1.8493,15.408 c 4.6574,6e-5 8.2646,1.8615 10.822,5.5844 2.557,3.723 3.8355,7.704 3.8355,11.943 -3e-5,5.598 -1.5525,9.9051 -4.6575,12.922 -3.105,3.0164 -6.4382,4.5245 -9.9998,4.5245 -4.7032,0 -8.3218,-1.8478 -10.856,-5.5436 -2.5342,-3.6957 -3.8013,-7.6632 -3.8013,-11.902 -3e-5,-4.9457 1.4041,-9.1034 4.2122,-12.473 2.8081,-3.3696 6.2898,-5.0544 10.445,-5.0545 z"
     stroke-width="2"
     id="path197" />
</svg>
